<?xml version="1.0" encoding="utf-8"?>
<!-- Generator: Adobe Illustrator 22.1.0, SVG Export Plug-In . SVG Version: 6.00 Build 0)  -->
<svg version="1.1" id="Warstwa_2" xmlns="http://www.w3.org/2000/svg" xmlns:xlink="http://www.w3.org/1999/xlink" x="0px" y="0px"
	 viewBox="0 0 323 106.3" style="enable-background:new 0 0 323 106.3;" xml:space="preserve">
<g>
	<path d="M0,46.4V0h5.1v20.7h8.4V0h5.1v46.4h-5.1V25.3H5.1v21.1H0z"/>
	<path d="M37.7,34h5.1c0,0.6,0.1,1.4,0.1,2.4c0,1,0,1.8,0,2.4c-0.2,2.8-0.9,4.9-2.2,6.1c-1.3,1.2-3.5,1.9-6.6,1.9
		c-3.2,0-5.6-0.6-6.9-1.9c-1.4-1.3-2.1-3.3-2.3-6.1c0-1.8-0.1-3.9-0.1-6.2c0-2.4,0-4.8,0-7.2c0-2.4,0.1-4.5,0.1-6.4
		c0.2-2.9,0.9-4.9,2.4-6.1c1.4-1.2,3.7-1.9,6.8-1.9c3.1,0,5.3,0.6,6.7,1.9c1.4,1.2,2.1,3.2,2.3,6c0,0.4,0,1.2,0,2.5
		c0,1.2,0,2.6,0,4.1c0,1.5,0,3-0.1,4.4h-13c0,1.5,0,3.1,0.1,4.7c0,1.6,0.1,3.2,0.1,4.8c0,1.3,0.3,2.2,0.9,2.7c0.6,0.5,1.6,0.7,3,0.7
		c1.4,0,2.3-0.3,2.9-0.8c0.6-0.5,0.9-1.4,1-2.7c0-0.6,0-1.4,0-2.3C37.8,36.2,37.7,35.1,37.7,34z M33.9,15.1c-1.5,0-2.5,0.3-3.1,0.8
		c-0.6,0.5-0.9,1.4-0.9,2.5c0,1.3-0.1,2.5-0.1,3.8c0,1.3,0,2.6,0,3.9h7.9c0-1.6,0.1-3.2,0.1-4.7c0-1.5,0-2.5-0.1-3
		c-0.1-1.2-0.5-2.1-1.1-2.6C36.1,15.4,35.2,15.1,33.9,15.1z"/>
	<path d="M48.3,46.4V0h5.1v46.4H48.3z"/>
	<path d="M59.3,46.4V0h5.1v46.4H59.3z"/>
	<path d="M79.9,46.9c-3.3,0-5.7-0.7-7-2s-2.1-3.5-2.3-6.6c-0.1-1.5-0.1-3.4-0.1-5.6c0-2.2,0-4.5,0-6.8c0-2.3,0.1-4.4,0.1-6.2
		c0.2-3.1,0.9-5.3,2.3-6.6c1.4-1.3,3.7-2,7-2c3.3,0,5.7,0.7,7,2s2.1,3.5,2.2,6.6c0.1,1.7,0.1,3.6,0.1,5.8c0,2.2,0,4.4,0,6.6
		c0,2.2-0.1,4.3-0.1,6.1c-0.2,3.1-0.9,5.2-2.3,6.6C85.5,46.2,83.2,46.9,79.9,46.9z M79.9,42.9c1.5,0,2.6-0.3,3.1-0.9
		s0.9-1.5,0.9-2.7c0.2-3.5,0.2-6.9,0.2-10.3c0-3.4-0.1-6.9-0.2-10.5c0-1.2-0.4-2.1-1-2.7c-0.6-0.5-1.6-0.8-3.1-0.8
		c-1.5,0-2.5,0.3-3.2,0.9c-0.6,0.6-1,1.5-1,2.7c-0.1,3-0.2,6.3-0.2,9.9c0,3.6,0.1,7.2,0.2,10.7c0.1,1.3,0.4,2.2,1,2.8
		C77.4,42.6,78.4,42.9,79.9,42.9z"/>
	<path d="M110.2,46.4l-4.3-34.8h5.2l1.8,17.6l1,13.3h1.2l1-13.3l1.8-17.5h8.5l1.7,17.5l0.9,13.3h1.2l1-13.3l1.8-17.6h5.2L134,46.4
		h-8.7L123.9,33l-1.3-17.4h-1.2l-1.3,17.3l-1.3,13.5H110.2z"/>
	<path d="M155.3,34h5.1c0,0.6,0.1,1.4,0.1,2.4c0,1,0,1.8,0,2.4c-0.2,2.8-0.9,4.9-2.2,6.1c-1.3,1.2-3.5,1.9-6.6,1.9
		c-3.2,0-5.6-0.6-6.9-1.9c-1.4-1.3-2.1-3.3-2.3-6.1c0-1.8-0.1-3.9-0.1-6.2c0-2.4,0-4.8,0-7.2c0-2.4,0.1-4.5,0.1-6.4
		c0.2-2.9,0.9-4.9,2.4-6.1c1.4-1.2,3.7-1.9,6.8-1.9c3.1,0,5.3,0.6,6.7,1.9c1.4,1.2,2.1,3.2,2.3,6c0,0.4,0,1.2,0,2.5
		c0,1.2,0,2.6,0,4.1c0,1.5,0,3-0.1,4.4h-13c0,1.5,0,3.1,0.1,4.7c0,1.6,0.1,3.2,0.1,4.8c0,1.3,0.3,2.2,0.9,2.7c0.6,0.5,1.6,0.7,3,0.7
		c1.4,0,2.3-0.3,2.9-0.8c0.6-0.5,0.9-1.4,1-2.7c0-0.6,0-1.4,0-2.3C155.4,36.2,155.4,35.1,155.3,34z M151.6,15.1
		c-1.5,0-2.5,0.3-3.1,0.8c-0.6,0.5-0.9,1.4-0.9,2.5c0,1.3-0.1,2.5-0.1,3.8c0,1.3,0,2.6,0,3.9h7.9c0-1.6,0.1-3.2,0.1-4.7
		c0-1.5,0-2.5-0.1-3c-0.1-1.2-0.5-2.1-1.1-2.6C153.7,15.4,152.8,15.1,151.6,15.1z"/>
	<path d="M163.8,6V0h8.5v5.5l-3.7,7.1h-3.4l3-6.5H163.8z"/>
	<path d="M176.1,46.4V11.6h5.3v3.5h1c0.3-1.4,0.9-2.3,1.8-2.8c0.8-0.5,2-0.8,3.4-0.8c0.4,0,0.8,0,1.2,0c0.4,0,0.8,0,1.1,0.1v4h-2.2
		c-1.8,0-3.2,0.3-4.2,0.8c-1,0.6-1.7,1.5-2.1,2.9v27H176.1z"/>
	<path d="M205.6,34h5.1c0,0.6,0.1,1.4,0.1,2.4c0,1,0,1.8,0,2.4c-0.2,2.8-0.9,4.9-2.2,6.1c-1.3,1.2-3.5,1.9-6.6,1.9
		c-3.2,0-5.6-0.6-6.9-1.9c-1.4-1.3-2.1-3.3-2.3-6.1c0-1.8-0.1-3.9-0.1-6.2c0-2.4,0-4.8,0-7.2c0-2.4,0.1-4.5,0.1-6.4
		c0.2-2.9,0.9-4.9,2.4-6.1c1.4-1.2,3.7-1.9,6.8-1.9c3.1,0,5.3,0.6,6.7,1.9c1.4,1.2,2.1,3.2,2.3,6c0,0.4,0,1.2,0,2.5
		c0,1.2,0,2.6,0,4.1c0,1.5,0,3-0.1,4.4h-13c0,1.5,0,3.1,0.1,4.7c0,1.6,0.1,3.2,0.1,4.8c0,1.3,0.3,2.2,0.9,2.7c0.6,0.5,1.6,0.7,3,0.7
		c1.4,0,2.3-0.3,2.9-0.8c0.6-0.5,0.9-1.4,1-2.7c0-0.6,0-1.4,0-2.3C205.6,36.2,205.6,35.1,205.6,34z M201.8,15.1
		c-1.5,0-2.5,0.3-3.1,0.8c-0.6,0.5-0.9,1.4-0.9,2.5c0,1.3-0.1,2.5-0.1,3.8c0,1.3,0,2.6,0,3.9h7.9c0-1.6,0.1-3.2,0.1-4.7
		c0-1.5,0-2.5-0.1-3c-0.1-1.2-0.5-2.1-1.1-2.6C203.9,15.4,203,15.1,201.8,15.1z"/>
</g>
<g>
	<path d="M93.1,46.3h5.4v48h-5.4v-3.4h-1c-0.7,1.3-1.5,2.2-2.5,2.9c-0.9,0.7-2.2,1-3.8,1c-2.3,0-4-0.6-5-1.9
		c-1.1-1.2-1.7-3.3-1.8-6.1c-0.1-2.1-0.1-4.4-0.1-6.9c0-2.5,0-5.1,0-7.6c0-2.5,0.1-4.7,0.1-6.6c0.1-2.9,0.7-4.9,1.9-6.1
		c1.2-1.2,2.9-1.8,5.1-1.8c1.6,0,2.8,0.3,3.8,1s1.7,1.6,2.4,2.9h0.9V46.3z M87.8,90.8c1.2,0,2.2-0.3,3.2-0.8c1-0.5,1.7-1.4,2.1-2.6
		V65.3c-0.4-1.2-1.1-2.1-2.1-2.6c-0.9-0.5-2-0.8-3.1-0.8c-1.2,0-2.1,0.3-2.6,0.8c-0.5,0.5-0.8,1.4-0.8,2.6c-0.1,2.4-0.1,4.9-0.2,7.5
		c0,2.6-0.1,5.2,0,7.6s0.1,4.7,0.2,6.7c0,1.4,0.3,2.3,0.9,2.9C85.8,90.5,86.7,90.8,87.8,90.8z"/>
	<path d="M118.1,81.6h5.3c0,0.6,0.1,1.5,0.1,2.5c0,1,0,1.9,0,2.5c-0.2,2.9-0.9,5-2.3,6.3c-1.4,1.3-3.7,1.9-6.9,1.9
		c-3.4,0-5.8-0.7-7.2-2s-2.2-3.4-2.4-6.3c0-1.8-0.1-4-0.1-6.5s0-4.9,0-7.4c0-2.5,0.1-4.7,0.1-6.6c0.2-3,1-5.1,2.5-6.4s3.8-1.9,7-1.9
		c3.2,0,5.5,0.6,6.9,1.9s2.2,3.3,2.3,6.2c0,0.4,0,1.3,0,2.5c0,1.3,0,2.7,0,4.3c0,1.6-0.1,3.1-0.1,4.6h-13.4c0,1.6,0,3.2,0.1,4.9
		c0,1.6,0.1,3.3,0.1,4.9c0,1.4,0.3,2.3,1,2.8c0.6,0.5,1.7,0.8,3.1,0.8c1.4,0,2.4-0.3,3-0.8c0.6-0.5,0.9-1.4,1-2.8c0-0.6,0-1.4,0-2.4
		S118.1,82.7,118.1,81.6z M114.2,62c-1.5,0-2.6,0.3-3.2,0.8c-0.6,0.6-0.9,1.4-0.9,2.6c0,1.3-0.1,2.6-0.1,3.9c0,1.3,0,2.7,0,4h8.2
		c0-1.7,0.1-3.3,0.1-4.8s0-2.6-0.1-3.2c-0.1-1.3-0.5-2.2-1.1-2.7S115.5,62,114.2,62z"/>
	<path d="M132.9,94.3l-5.4-36h5.5l2.4,18.2l1.3,13.8h1.3l1.4-13.8l2.5-18.2h5.5l-5.5,36H132.9z"/>
	<path d="M165.2,81.6h5.3c0,0.6,0.1,1.5,0.1,2.5c0,1,0,1.9,0,2.5c-0.2,2.9-0.9,5-2.3,6.3c-1.4,1.3-3.7,1.9-6.9,1.9
		c-3.4,0-5.8-0.7-7.2-2s-2.2-3.4-2.4-6.3c0-1.8-0.1-4-0.1-6.5s0-4.9,0-7.4c0-2.5,0.1-4.7,0.1-6.6c0.2-3,1-5.1,2.5-6.4s3.8-1.9,7-1.9
		c3.2,0,5.5,0.6,6.9,1.9s2.2,3.3,2.3,6.2c0,0.4,0,1.3,0,2.5c0,1.3,0,2.7,0,4.3c0,1.6-0.1,3.1-0.1,4.6h-13.4c0,1.6,0,3.2,0.1,4.9
		c0,1.6,0.1,3.3,0.1,4.9c0,1.4,0.3,2.3,1,2.8c0.6,0.5,1.7,0.8,3.1,0.8c1.4,0,2.4-0.3,3-0.8c0.6-0.5,0.9-1.4,1-2.8c0-0.6,0-1.4,0-2.4
		S165.3,82.7,165.2,81.6z M161.3,62c-1.5,0-2.6,0.3-3.2,0.8c-0.6,0.6-0.9,1.4-0.9,2.6c0,1.3-0.1,2.6-0.1,3.9c0,1.3,0,2.7,0,4h8.2
		c0-1.7,0.1-3.3,0.1-4.8s0-2.6-0.1-3.2c-0.1-1.3-0.5-2.2-1.1-2.7S162.6,62,161.3,62z"/>
	<path d="M176.2,94.3v-48h5.3v48H176.2z"/>
	<path d="M197.4,94.8c-3.4,0-5.9-0.7-7.3-2.1c-1.4-1.4-2.2-3.6-2.3-6.8c-0.1-1.6-0.1-3.5-0.2-5.8c0-2.3,0-4.6,0-7
		c0-2.4,0.1-4.5,0.2-6.4c0.2-3.2,0.9-5.5,2.4-6.8c1.4-1.4,3.8-2,7.2-2c3.4,0,5.9,0.7,7.2,2.1s2.1,3.7,2.3,6.8c0.1,1.8,0.1,3.8,0.2,6
		c0,2.3,0,4.5,0,6.8c0,2.3-0.1,4.4-0.2,6.3c-0.2,3.2-0.9,5.4-2.3,6.8C203.2,94.1,200.8,94.8,197.4,94.8z M197.4,90.7
		c1.6,0,2.6-0.3,3.2-0.9s0.9-1.5,1-2.8c0.2-3.6,0.2-7.2,0.2-10.7c0-3.5-0.1-7.1-0.2-10.9c0-1.3-0.4-2.2-1-2.8s-1.7-0.8-3.2-0.8
		c-1.5,0-2.6,0.3-3.3,0.9s-1,1.5-1.1,2.8c-0.1,3.1-0.2,6.5-0.2,10.3s0.1,7.4,0.2,11.1c0.1,1.3,0.4,2.3,1.1,2.9
		S195.9,90.7,197.4,90.7z"/>
	<path d="M222.5,94.8c-3.4,0-5.9-0.7-7.3-2.1c-1.4-1.4-2.2-3.6-2.3-6.8c-0.1-1.6-0.1-3.5-0.2-5.8c0-2.3,0-4.6,0-7
		c0-2.4,0.1-4.5,0.2-6.4c0.2-3.2,0.9-5.5,2.4-6.8c1.4-1.4,3.8-2,7.2-2c3.4,0,5.9,0.7,7.2,2.1s2.1,3.7,2.3,6.8c0.1,1.8,0.1,3.8,0.2,6
		c0,2.3,0,4.5,0,6.8c0,2.3-0.1,4.4-0.2,6.3c-0.2,3.2-0.9,5.4-2.3,6.8C228.3,94.1,225.9,94.8,222.5,94.8z M222.5,90.7
		c1.6,0,2.6-0.3,3.2-0.9s0.9-1.5,1-2.8c0.2-3.6,0.2-7.2,0.2-10.7c0-3.5-0.1-7.1-0.2-10.9c0-1.3-0.4-2.2-1-2.8s-1.7-0.8-3.2-0.8
		c-1.5,0-2.6,0.3-3.3,0.9s-1,1.5-1.1,2.8C218,68.8,218,72.2,218,76s0.1,7.4,0.2,11.1c0.1,1.3,0.4,2.3,1.1,2.9S221,90.7,222.5,90.7z"
		/>
	<path d="M238.3,106.3v-48h5.4v3.4h0.9c0.7-1.3,1.5-2.3,2.4-2.9s2.2-1,3.8-1c2.2,0,3.9,0.6,5,1.9c1.1,1.2,1.8,3.3,1.9,6.1
		c0,1.2,0.1,2.7,0.1,4.6c0,1.9,0,3.9,0,5.9c0,2.1,0,4.1,0,5.9c0,1.9-0.1,3.4-0.1,4.6c-0.1,2.8-0.8,4.8-2,6.1
		c-1.2,1.2-2.9,1.9-5.1,1.9c-1.4,0-2.6-0.3-3.5-0.9c-0.9-0.6-1.8-1.6-2.5-3h-0.9v15.4H238.3z M248.7,90.8c2.4,0,3.6-1.2,3.7-3.5
		c0.1-3.1,0.2-5.9,0.2-8.3c0-2.4,0-4.7,0-6.8c-0.1-2.2-0.1-4.5-0.2-6.9c0-1.2-0.3-2.1-0.8-2.6c-0.5-0.5-1.4-0.8-2.5-0.8
		c-1.3,0-2.4,0.3-3.3,0.9c-0.9,0.6-1.6,1.4-2,2.5v22.1c0.5,1.3,1.1,2.2,1.9,2.7C246.4,90.6,247.5,90.8,248.7,90.8z"/>
	<path d="M277,81.6h5.3c0,0.6,0.1,1.5,0.1,2.5c0,1,0,1.9,0,2.5c-0.2,2.9-0.9,5-2.3,6.3c-1.4,1.3-3.7,1.9-6.9,1.9
		c-3.4,0-5.8-0.7-7.2-2s-2.2-3.4-2.4-6.3c0-1.8-0.1-4-0.1-6.5s0-4.9,0-7.4c0-2.5,0.1-4.7,0.1-6.6c0.2-3,1-5.1,2.5-6.4s3.8-1.9,7-1.9
		c3.2,0,5.5,0.6,6.9,1.9s2.2,3.3,2.3,6.2c0,0.4,0,1.3,0,2.5c0,1.3,0,2.7,0,4.3c0,1.6-0.1,3.1-0.1,4.6h-13.4c0,1.6,0,3.2,0.1,4.9
		c0,1.6,0.1,3.3,0.1,4.9c0,1.4,0.3,2.3,1,2.8c0.6,0.5,1.7,0.8,3.1,0.8c1.4,0,2.4-0.3,3-0.8c0.6-0.5,0.9-1.4,1-2.8c0-0.6,0-1.4,0-2.4
		S277,82.7,277,81.6z M273.1,62c-1.5,0-2.6,0.3-3.2,0.8c-0.6,0.6-0.9,1.4-0.9,2.6c0,1.3-0.1,2.6-0.1,3.9c0,1.3,0,2.7,0,4h8.2
		c0-1.7,0.1-3.3,0.1-4.8s0-2.6-0.1-3.2c-0.1-1.3-0.5-2.2-1.1-2.7S274.3,62,273.1,62z"/>
	<path d="M287.6,94.3v-36h5.5V62h1.1c0.4-1.4,1-2.4,1.8-2.9c0.9-0.6,2-0.8,3.5-0.8c0.4,0,0.8,0,1.2,0c0.4,0,0.8,0.1,1.1,0.1v4.1
		h-2.3c-1.8,0-3.3,0.3-4.3,0.9c-1.1,0.6-1.8,1.6-2.1,3v28H287.6z"/>
	<path d="M313.7,94.8c-3.2,0-5.4-0.6-6.7-1.9c-1.3-1.3-2-3.4-2.1-6.3c0-0.9-0.1-1.8,0-2.6c0-0.8,0-1.6,0.1-2.4h4.8
		c-0.1,1.3-0.1,2.4-0.1,3.3c0,0.9,0,1.7,0,2.3c0,1.4,0.4,2.3,1,2.8c0.6,0.5,1.6,0.8,3,0.8c1.5,0,2.6-0.3,3.2-0.8
		c0.7-0.5,1-1.5,1.1-2.8c0-1.4,0-2.6,0-3.8c0-1.3-0.2-2.2-0.6-2.9c-0.4-0.7-1.1-1.1-2.2-1.5l-3.4-1c-2.4-0.7-4.2-1.7-5.2-2.9
		s-1.6-3.2-1.6-5.9c0-1.2,0-2.2,0-3.1c0-3,0.7-5.1,2.1-6.4s3.7-1.9,7.1-1.9c3.1,0,5.3,0.6,6.7,1.9c1.3,1.3,2,3.4,2.1,6.3
		c0,0.3,0,0.8,0,1.4c0,0.6,0,1.3,0,1.9c0,0.7-0.1,1.2-0.1,1.7h-4.9c0-0.9,0.1-1.9,0.1-3s0-1.9,0-2.6c0-1.3-0.3-2.2-0.9-2.7
		c-0.5-0.5-1.5-0.8-2.9-0.8c-1.4,0-2.4,0.3-3,0.8c-0.5,0.5-0.8,1.4-0.9,2.7c0,0.4,0,0.8,0,1.3c0,0.5,0,1.2,0,1.9
		c0,1.4,0.2,2.5,0.5,3.3c0.3,0.8,1.1,1.4,2.3,1.7l3.2,0.8c2.3,0.6,4,1.6,5.2,2.9c1.1,1.3,1.7,3.2,1.7,5.8c0,0.7,0,1.3,0,1.8
		s0,1.1-0.1,1.8c-0.1,2.8-0.8,4.9-2.2,6.1C319.4,94.2,317,94.8,313.7,94.8z"/>
</g>
<g>
	<path d="M176.3,74.6V29h5v45.6H176.3z"/>
</g>
</svg>
